<?xml version="1.0" encoding="UTF-8"?>
<svg width="1200" height="750" viewBox="0 0 1200 750" xmlns="http://www.w3.org/2000/svg">
  <!-- Definitions for gradients and patterns -->
  <defs>
    <!-- Gradient definitions -->
    <linearGradient id="headerGrad" x1="0%" y1="0%" x2="100%" y2="0%">
      <stop offset="0%" style="stop-color:#1f2937;stop-opacity:1" />
      <stop offset="100%" style="stop-color:#374151;stop-opacity:1" />
    </linearGradient>
    
    <linearGradient id="computeGrad" x1="0%" y1="0%" x2="100%" y2="100%">
      <stop offset="0%" style="stop-color:#3b82f6;stop-opacity:1" />
      <stop offset="100%" style="stop-color:#1e40af;stop-opacity:1" />
    </linearGradient>
    
    <linearGradient id="networkGrad" x1="0%" y1="0%" x2="100%" y2="100%">
      <stop offset="0%" style="stop-color:#10b981;stop-opacity:1" />
      <stop offset="100%" style="stop-color:#047857;stop-opacity:1" />
    </linearGradient>
    
    <linearGradient id="storageGrad" x1="0%" y1="0%" x2="100%" y2="100%">
      <stop offset="0%" style="stop-color:#f59e0b;stop-opacity:1" />
      <stop offset="100%" style="stop-color:#d97706;stop-opacity:1" />
    </linearGradient>
    
    <linearGradient id="managementGrad" x1="0%" y1="0%" x2="100%" y2="100%">
      <stop offset="0%" style="stop-color:#8b5cf6;stop-opacity:1" />
      <stop offset="100%" style="stop-color:#7c3aed;stop-opacity:1" />
    </linearGradient>
    
    <linearGradient id="ecosystemGrad" x1="0%" y1="0%" x2="100%" y2="100%">
      <stop offset="0%" style="stop-color:#3b82f6;stop-opacity:0.3" />
      <stop offset="25%" style="stop-color:#10b981;stop-opacity:0.3" />
      <stop offset="50%" style="stop-color:#f59e0b;stop-opacity:0.3" />
      <stop offset="75%" style="stop-color:#8b5cf6;stop-opacity:0.3" />
      <stop offset="100%" style="stop-color:#6366f1;stop-opacity:0.3" />
    </linearGradient>

    <!-- Arrow marker -->
    <marker id="arrowhead" markerWidth="10" markerHeight="7" refX="9" refY="3.5" orient="auto">
      <polygon points="0 0, 10 3.5, 0 7" fill="#6b7280"/>
    </marker>
  </defs>
  
  <!-- Background -->
  <rect width="1200" height="750" fill="#f8fafc"/>
  
  <!-- Header Section -->
  <rect x="0" y="0" width="1200" height="100" fill="url(#headerGrad)"/>
  <text x="600" y="45" text-anchor="middle" font-family="Arial, sans-serif" font-size="28" font-weight="bold" fill="white">
    Kubernetes 核心元件知識圖表
  </text>
  <text x="600" y="70" text-anchor="middle" font-family="Arial, sans-serif" font-size="14" fill="#e5e7eb">
    容器編排平台的完整架構解析
  </text>

  <!-- Problem Section (Top) -->
  <rect x="50" y="120" width="1100" height="60" rx="10" fill="#fef2f2" stroke="#fca5a5" stroke-width="2"/>
  <circle cx="80" cy="150" r="15" fill="#dc2626"/>
  <text x="80" y="156" text-anchor="middle" font-family="Arial, sans-serif" font-size="16" font-weight="bold" fill="white">?</text>
  <text x="110" y="145" font-family="Arial, sans-serif" font-size="16" font-weight="bold" fill="#dc2626">挑戰</text>
  <text x="110" y="165" font-family="Arial, sans-serif" font-size="14" fill="#991b1b">容器化應用需要統一管理、網路通訊、資料持久化和自動化部署</text>

  <!-- Main Content Area -->
  <g transform="translate(60, 260)">
    
    <!-- Computing Layer -->
    <g>
      <rect x="0" y="0" width="250" height="280" rx="12" fill="url(#computeGrad)" opacity="0.1"/>
      <rect x="0" y="0" width="250" height="40" rx="12" fill="url(#computeGrad)"/>
      <text x="125" y="18" text-anchor="middle" font-family="Arial, sans-serif" font-size="16" font-weight="bold" fill="white">運算層</text>
      <text x="125" y="32" text-anchor="middle" font-family="Arial, sans-serif" font-size="12" fill="white">Computing Layer</text>
      
      <!-- Pod -->
      <g transform="translate(20, 60)">
        <rect x="0" y="0" width="100" height="80" rx="8" fill="white" stroke="#3b82f6" stroke-width="2"/>
        <circle cx="20" cy="18" r="8" fill="#3b82f6"/>
        <rect x="14" y="12" width="12" height="12" fill="white" rx="2"/>
        <text x="50" y="22" text-anchor="middle" font-family="Arial, sans-serif" font-size="14" font-weight="bold" fill="#1e40af">Pod</text>
        <text x="50" y="38" text-anchor="middle" font-family="Arial, sans-serif" font-size="10" fill="#374151">最小運行單位</text>
        <text x="50" y="52" text-anchor="middle" font-family="Arial, sans-serif" font-size="9" fill="#6b7280">唯一虛擬IP</text>
        <text x="50" y="64" text-anchor="middle" font-family="Arial, sans-serif" font-size="9" fill="#6b7280">容器集合</text>
      </g>
      
      <!-- Node -->
      <g transform="translate(130, 60)">
        <rect x="0" y="0" width="100" height="80" rx="8" fill="white" stroke="#3b82f6" stroke-width="2"/>
        <rect x="13" y="13" width="14" height="14" fill="#3b82f6" rx="2"/>
        <rect x="33" y="13" width="14" height="14" fill="#3b82f6" rx="2"/>
        <rect x="53" y="13" width="14" height="14" fill="#3b82f6" rx="2"/>
        <rect x="73" y="13" width="14" height="14" fill="#3b82f6" rx="2"/>
        <text x="50" y="42" text-anchor="middle" font-family="Arial, sans-serif" font-size="14" font-weight="bold" fill="#1e40af">Node</text>
        <text x="50" y="55" text-anchor="middle" font-family="Arial, sans-serif" font-size="10" fill="#374151">工作節點</text>
        <text x="50" y="68" text-anchor="middle" font-family="Arial, sans-serif" font-size="9" fill="#6b7280">提供運算資源</text>
      </g>
      
      <!-- Deployment -->
      <g transform="translate(20, 160)">
        <rect x="0" y="0" width="100" height="80" rx="8" fill="white" stroke="#3b82f6" stroke-width="2"/>
        <polygon points="22,18 33,12 33,24" fill="#3b82f6"/>
        <polygon points="42,18 53,12 53,24" fill="#3b82f6"/>
        <polygon points="62,18 73,12 73,24" fill="#3b82f6"/>
        <text x="50" y="42" text-anchor="middle" font-family="Arial, sans-serif" font-size="12" font-weight="bold" fill="#1e40af">Deployment</text>
        <text x="50" y="55" text-anchor="middle" font-family="Arial, sans-serif" font-size="9" fill="#374151">無狀態部署</text>
        <text x="50" y="68" text-anchor="middle" font-family="Arial, sans-serif" font-size="9" fill="#6b7280">滾動更新</text>
      </g>
      
      <!-- StatefulSet -->
      <g transform="translate(130, 160)">
        <rect x="0" y="0" width="100" height="80" rx="8" fill="white" stroke="#3b82f6" stroke-width="2"/>
        <rect x="22" y="14" width="14" height="14" fill="#3b82f6" rx="2"/>
        <text x="29" y="24" text-anchor="middle" font-family="Arial, sans-serif" font-size="8" font-weight="bold" fill="white">0</text>
        <rect x="43" y="14" width="14" height="14" fill="#3b82f6" rx="2"/>
        <text x="50" y="24" text-anchor="middle" font-family="Arial, sans-serif" font-size="8" font-weight="bold" fill="white">1</text>
        <rect x="64" y="14" width="14" height="14" fill="#3b82f6" rx="2"/>
        <text x="71" y="24" text-anchor="middle" font-family="Arial, sans-serif" font-size="8" font-weight="bold" fill="white">2</text>
        <text x="50" y="42" text-anchor="middle" font-family="Arial, sans-serif" font-size="12" font-weight="bold" fill="#1e40af">StatefulSet</text>
        <text x="50" y="55" text-anchor="middle" font-family="Arial, sans-serif" font-size="9" fill="#374151">有狀態部署</text>
        <text x="50" y="68" text-anchor="middle" font-family="Arial, sans-serif" font-size="9" fill="#6b7280">有序管理</text>
      </g>
    </g>

    <!-- Network Layer -->
    <g transform="translate(270, 0)">
      <rect x="0" y="0" width="250" height="280" rx="12" fill="url(#networkGrad)" opacity="0.1"/>
      <rect x="0" y="0" width="250" height="40" rx="12" fill="url(#networkGrad)"/>
      <text x="125" y="18" text-anchor="middle" font-family="Arial, sans-serif" font-size="16" font-weight="bold" fill="white">網路層</text>
      <text x="125" y="32" text-anchor="middle" font-family="Arial, sans-serif" font-size="12" fill="white">Network Layer</text>
      
      <!-- Service -->
      <g transform="translate(20, 60)">
        <rect x="0" y="0" width="100" height="80" rx="8" fill="white" stroke="#10b981" stroke-width="2"/>
        <circle cx="25" cy="25" r="10" fill="#10b981"/>
        <circle cx="20" cy="45" r="5" fill="#10b981" opacity="0.7"/>
        <circle cx="30" cy="45" r="5" fill="#10b981" opacity="0.7"/>
        <circle cx="25" cy="55" r="5" fill="#10b981" opacity="0.7"/>
        <text x="25" y="30" text-anchor="middle" font-family="Arial, sans-serif" font-size="8" font-weight="bold" fill="white">S</text>
        <text x="58" y="18" text-anchor="middle" font-family="Arial, sans-serif" font-size="12" font-weight="bold" fill="#047857">Service</text>
        <text x="58" y="35" text-anchor="middle" font-family="Arial, sans-serif" font-size="9" fill="#374151">穩定端點</text>
        <text x="58" y="48" text-anchor="middle" font-family="Arial, sans-serif" font-size="9" fill="#6b7280">固定IP</text>
        <text x="58" y="60" text-anchor="middle" font-family="Arial, sans-serif" font-size="9" fill="#6b7280">負載均衡</text>
      </g>
      
      <!-- Ingress -->
      <g transform="translate(130, 60)">
        <rect x="0" y="0" width="100" height="80" rx="8" fill="white" stroke="#10b981" stroke-width="2"/>
        <path d="M20,25 L35,15 L50,25 L65,15 L80,25" stroke="#10b981" stroke-width="2" fill="none"/>
        <circle cx="20" cy="25" r="3" fill="#10b981"/>
        <circle cx="35" cy="15" r="3" fill="#10b981"/>
        <circle cx="50" cy="25" r="3" fill="#10b981"/>
        <circle cx="65" cy="15" r="3" fill="#10b981"/>
        <circle cx="80" cy="25" r="3" fill="#10b981"/>
        <text x="50" y="42" text-anchor="middle" font-family="Arial, sans-serif" font-size="12" font-weight="bold" fill="#047857">Ingress</text>
        <text x="50" y="55" text-anchor="middle" font-family="Arial, sans-serif" font-size="9" fill="#374151">HTTP路由</text>
        <text x="50" y="68" text-anchor="middle" font-family="Arial, sans-serif" font-size="9" fill="#6b7280">域名管理</text>
      </g>
      
      <!-- Network Features -->
      <g transform="translate(75, 160)">
        <rect x="0" y="0" width="100" height="80" rx="8" fill="white" stroke="#10b981" stroke-width="2"/>
        <circle cx="50" cy="20" r="8" fill="#10b981"/>
        <text x="50" y="25" text-anchor="middle" font-family="Arial, sans-serif" font-size="8" font-weight="bold" fill="white">N</text>
        <text x="50" y="42" text-anchor="middle" font-family="Arial, sans-serif" font-size="12" font-weight="bold" fill="#047857">Network</text>
        <text x="50" y="55" text-anchor="middle" font-family="Arial, sans-serif" font-size="9" fill="#374151">服務發現</text>
        <text x="50" y="68" text-anchor="middle" font-family="Arial, sans-serif" font-size="9" fill="#6b7280">流量管理</text>
      </g>
    </g>

    <!-- Storage Layer -->
    <g transform="translate(540, 0)">
      <rect x="0" y="0" width="250" height="280" rx="12" fill="url(#storageGrad)" opacity="0.1"/>
      <rect x="0" y="0" width="250" height="40" rx="12" fill="url(#storageGrad)"/>
      <text x="125" y="18" text-anchor="middle" font-family="Arial, sans-serif" font-size="16" font-weight="bold" fill="white">存儲層</text>
      <text x="125" y="32" text-anchor="middle" font-family="Arial, sans-serif" font-size="12" fill="white">Storage Layer</text>
      
      <!-- ConfigMap -->
      <g transform="translate(20, 60)">
        <rect x="0" y="0" width="100" height="80" rx="8" fill="white" stroke="#f59e0b" stroke-width="2"/>
        <rect x="25" y="18" width="50" height="6" fill="#f59e0b" rx="2"/>
        <rect x="25" y="28" width="35" height="4" fill="#f59e0b" opacity="0.7" rx="1"/>
        <rect x="25" y="35" width="40" height="4" fill="#f59e0b" opacity="0.7" rx="1"/>
        <rect x="25" y="42" width="30" height="4" fill="#f59e0b" opacity="0.7" rx="1"/>
        <text x="50" y="60" text-anchor="middle" font-family="Arial, sans-serif" font-size="12" font-weight="bold" fill="#d97706">ConfigMap</text>
        <text x="50" y="72" text-anchor="middle" font-family="Arial, sans-serif" font-size="9" fill="#6b7280">配置管理</text>
      </g>
      
      <!-- Secret -->
      <g transform="translate(130, 60)">
        <rect x="0" y="0" width="100" height="80" rx="8" fill="white" stroke="#f59e0b" stroke-width="2"/>
        <rect x="40" y="18" width="20" height="14" fill="#f59e0b" rx="2"/>
        <circle cx="50" cy="36" r="6" fill="none" stroke="#f59e0b" stroke-width="2"/>
        <rect x="47" y="40" width="6" height="8" fill="#f59e0b"/>
        <text x="50" y="60" text-anchor="middle" font-family="Arial, sans-serif" font-size="12" font-weight="bold" fill="#d97706">Secret</text>
        <text x="50" y="72" text-anchor="middle" font-family="Arial, sans-serif" font-size="9" fill="#6b7280">敏感資料</text>
      </g>
      
      <!-- Volumes -->
      <g transform="translate(75, 160)">
        <rect x="0" y="0" width="100" height="80" rx="8" fill="white" stroke="#f59e0b" stroke-width="2"/>
        <rect x="30" y="18" width="40" height="24" fill="none" stroke="#f59e0b" stroke-width="2" rx="2"/>
        <rect x="33" y="22" width="34" height="4" fill="#f59e0b" rx="1"/>
        <rect x="33" y="28" width="34" height="4" fill="#f59e0b" rx="1"/>
        <rect x="33" y="34" width="34" height="4" fill="#f59e0b" rx="1"/>
        <text x="50" y="55" text-anchor="middle" font-family="Arial, sans-serif" font-size="12" font-weight="bold" fill="#d97706">Volumes</text>
        <text x="50" y="67" text-anchor="middle" font-family="Arial, sans-serif" font-size="9" fill="#6b7280">持久化存儲</text>
      </g>
    </g>

    <!-- Management Layer -->
    <g transform="translate(810, 0)">
      <rect x="0" y="0" width="270" height="280" rx="12" fill="url(#managementGrad)" opacity="0.1"/>
      <rect x="0" y="0" width="270" height="40" rx="12" fill="url(#managementGrad)"/>
      <text x="135" y="18" text-anchor="middle" font-family="Arial, sans-serif" font-size="16" font-weight="bold" fill="white">管理層</text>
      <text x="135" y="32" text-anchor="middle" font-family="Arial, sans-serif" font-size="12" fill="white">Management Layer</text>
      
      <!-- Deployment Management -->
      <g transform="translate(20, 60)">
        <rect x="0" y="0" width="110" height="80" rx="8" fill="white" stroke="#8b5cf6" stroke-width="2"/>
        <circle cx="55" cy="15" r="8" fill="#8b5cf6"/>
        <text x="55" y="20" text-anchor="middle" font-family="Arial, sans-serif" font-size="10" font-weight="bold" fill="white">A</text>
        <text x="55" y="38" text-anchor="middle" font-family="Arial, sans-serif" font-size="13" font-weight="bold" fill="#7c3aed">自動化部署</text>
        <text x="55" y="52" text-anchor="middle" font-family="Arial, sans-serif" font-size="10" fill="#374151">滾動更新</text>
        <text x="55" y="64" text-anchor="middle" font-family="Arial, sans-serif" font-size="9" fill="#6b7280">版本回滾</text>
        <text x="55" y="75" text-anchor="middle" font-family="Arial, sans-serif" font-size="9" fill="#6b7280">零停機部署</text>
      </g>
      
      <!-- Scaling Management -->
      <g transform="translate(140, 60)">
        <rect x="0" y="0" width="110" height="80" rx="8" fill="white" stroke="#8b5cf6" stroke-width="2"/>
        <circle cx="55" cy="15" r="8" fill="#8b5cf6"/>
        <text x="55" y="20" text-anchor="middle" font-family="Arial, sans-serif" font-size="10" font-weight="bold" fill="white">S</text>
        <text x="55" y="38" text-anchor="middle" font-family="Arial, sans-serif" font-size="13" font-weight="bold" fill="#7c3aed">彈性伸縮</text>
        <text x="55" y="52" text-anchor="middle" font-family="Arial, sans-serif" font-size="10" fill="#374151">自動擴縮容</text>
        <text x="55" y="64" text-anchor="middle" font-family="Arial, sans-serif" font-size="9" fill="#6b7280">負載均衡</text>
        <text x="55" y="75" text-anchor="middle" font-family="Arial, sans-serif" font-size="9" fill="#6b7280">資源優化</text>
      </g>
      
      <!-- Health Management -->
      <g transform="translate(20, 160)">
        <rect x="0" y="0" width="110" height="80" rx="8" fill="white" stroke="#8b5cf6" stroke-width="2"/>
        <circle cx="55" cy="15" r="8" fill="#8b5cf6"/>
        <text x="55" y="20" text-anchor="middle" font-family="Arial, sans-serif" font-size="10" font-weight="bold" fill="white">H</text>
        <text x="55" y="38" text-anchor="middle" font-family="Arial, sans-serif" font-size="13" font-weight="bold" fill="#7c3aed">自我修復</text>
        <text x="55" y="52" text-anchor="middle" font-family="Arial, sans-serif" font-size="10" fill="#374151">健康檢查</text>
        <text x="55" y="64" text-anchor="middle" font-family="Arial, sans-serif" font-size="9" fill="#6b7280">故障恢復</text>
        <text x="55" y="75" text-anchor="middle" font-family="Arial, sans-serif" font-size="9" fill="#6b7280">自動重啟</text>
      </g>
      
      <!-- K8s Platform -->
      <g transform="translate(140, 160)">
        <rect x="0" y="0" width="110" height="80" rx="8" fill="white" stroke="#8b5cf6" stroke-width="2"/>
        <!-- K8s Wheel Icon - Centered -->
        <circle cx="55" cy="15" r="8" fill="none" stroke="#8b5cf6" stroke-width="2"/>
        <circle cx="55" cy="15" r="2" fill="#8b5cf6"/>
        <circle cx="55" cy="7" r="1.5" fill="#8b5cf6"/>
        <circle cx="63" cy="15" r="1.5" fill="#8b5cf6"/>
        <circle cx="55" cy="23" r="1.5" fill="#8b5cf6"/>
        <circle cx="47" cy="15" r="1.5" fill="#8b5cf6"/>
        <circle cx="60" cy="10" r="1.5" fill="#8b5cf6"/>
        <circle cx="60" cy="20" r="1.5" fill="#8b5cf6"/>
        <circle cx="50" cy="20" r="1.5" fill="#8b5cf6"/>
        <circle cx="50" cy="10" r="1.5" fill="#8b5cf6"/>
        <text x="55" y="38" text-anchor="middle" font-family="Arial, sans-serif" font-size="15" font-weight="bold" fill="#7c3aed">K8s</text>
        <text x="55" y="52" text-anchor="middle" font-family="Arial, sans-serif" font-size="10" fill="#374151">容器編排平台</text>
        <text x="55" y="64" text-anchor="middle" font-family="Arial, sans-serif" font-size="9" fill="#6b7280">Production Ready</text>
      </g>
    </g>
  </g>

  <!-- Solution Section (Bottom) -->
  <rect x="50" y="630" width="1100" height="80" rx="10" fill="#f0fdf4" stroke="#4ade80" stroke-width="2"/>
  <circle cx="80" cy="660" r="15" fill="#16a34a"/>
  <text x="80" y="666" text-anchor="middle" font-family="Arial, sans-serif" font-size="16" font-weight="bold" fill="white">✓</text>
  <text x="110" y="650" font-family="Arial, sans-serif" font-size="16" font-weight="bold" fill="#16a34a">解決方案</text>
  <text x="110" y="665" font-family="Arial, sans-serif" font-size="14" fill="#15803d">完整的容器編排平台</text>
  <text x="110" y="680" font-family="Arial, sans-serif" font-size="12" fill="#166534">• 運算資源統一管理  • 網路服務自動發現  • 數據持久化存儲  • 應用生命週期自動化</text>
  <text x="110" y="695" font-family="Arial, sans-serif" font-size="12" fill="#166534">• 高可用性保證  • 彈性伸縮  • 零停機部署  • 自我修復能力</text>

  <!-- Problem to Process arrows -->
  <line x1="185" y1="180" x2="185" y2="260" stroke="#6b7280" stroke-width="2" marker-end="url(#arrowhead)"/>
  <line x1="455" y1="180" x2="455" y2="260" stroke="#6b7280" stroke-width="2" marker-end="url(#arrowhead)"/>
  <line x1="725" y1="180" x2="725" y2="260" stroke="#6b7280" stroke-width="2" marker-end="url(#arrowhead)"/>
  <line x1="1005" y1="180" x2="1005" y2="260" stroke="#6b7280" stroke-width="2" marker-end="url(#arrowhead)"/>
  
  <!-- Process to Solution arrows -->
  <line x1="185" y1="540" x2="185" y2="630" stroke="#6b7280" stroke-width="2" marker-end="url(#arrowhead)"/>
  <line x1="455" y1="540" x2="455" y2="630" stroke="#6b7280" stroke-width="2" marker-end="url(#arrowhead)"/>
  <line x1="725" y1="540" x2="725" y2="630" stroke="#6b7280" stroke-width="2" marker-end="url(#arrowhead)"/>
  <line x1="1005" y1="540" x2="1005" y2="630" stroke="#6b7280" stroke-width="2" marker-end="url(#arrowhead)"/>
  
  <!-- Unified system boundary -->
  <!-- Single large rounded rectangle wrapping all four layers -->
  <rect x="30" y="240" width="1140" height="320" rx="25" ry="25" 
        fill="none" stroke="#6b7280" stroke-width="3" stroke-dasharray="15,8" opacity="0.8"/>
  
  <!-- System label at bottom -->
  <g transform="translate(600, 590)">
    <rect x="-110" y="-18" width="220" height="36" rx="12" 
          fill="#ffffff" stroke="#6b7280" stroke-width="1" opacity="0.95"/>
    <text x="0" y="-4" text-anchor="middle" font-family="Arial, sans-serif" 
          font-size="14" font-weight="bold" fill="#374151">Kubernetes 統一容器編排平台</text>
    <text x="0" y="12" text-anchor="middle" font-family="Arial, sans-serif" 
          font-size="9" fill="#6b7280">Unified Container Orchestration Platform</text>
  </g>
</svg>